<svg width="122" height="52" viewBox="0 0 122 52" fill="none" xmlns="http://www.w3.org/2000/svg">
<path d="M45.448 27.536C45.448 26.608 45.6347 25.7973 46.008 25.104C46.392 24.4107 46.92 23.8773 47.592 23.504C48.2747 23.1307 49.0533 22.944 49.928 22.944C51.048 22.944 51.9813 23.2373 52.728 23.824C53.4853 24.4107 53.9813 25.2373 54.216 26.304H51.304C51.0587 25.6213 50.584 25.28 49.88 25.28C49.3787 25.28 48.9787 25.4773 48.68 25.872C48.3813 26.256 48.232 26.8107 48.232 27.536C48.232 28.2613 48.3813 28.8213 48.68 29.216C48.9787 29.6 49.3787 29.792 49.88 29.792C50.584 29.792 51.0587 29.4507 51.304 28.768H54.216C53.9813 29.8133 53.4853 30.6347 52.728 31.232C51.9707 31.8293 51.0373 32.128 49.928 32.128C49.0533 32.128 48.2747 31.9413 47.592 31.568C46.92 31.1947 46.392 30.6613 46.008 29.968C45.6347 29.2747 45.448 28.464 45.448 27.536ZM59.7435 32.128C58.8688 32.128 58.0795 31.9413 57.3755 31.568C56.6822 31.1947 56.1328 30.6613 55.7275 29.968C55.3328 29.2747 55.1355 28.464 55.1355 27.536C55.1355 26.6187 55.3382 25.8133 55.7435 25.12C56.1488 24.416 56.7035 23.8773 57.4075 23.504C58.1115 23.1307 58.9008 22.944 59.7755 22.944C60.6502 22.944 61.4395 23.1307 62.1435 23.504C62.8475 23.8773 63.4022 24.416 63.8075 25.12C64.2128 25.8133 64.4155 26.6187 64.4155 27.536C64.4155 28.4533 64.2075 29.264 63.7915 29.968C63.3862 30.6613 62.8262 31.1947 62.1115 31.568C61.4075 31.9413 60.6182 32.128 59.7435 32.128ZM59.7435 29.76C60.2662 29.76 60.7088 29.568 61.0715 29.184C61.4448 28.8 61.6315 28.2507 61.6315 27.536C61.6315 26.8213 61.4502 26.272 61.0875 25.888C60.7355 25.504 60.2982 25.312 59.7755 25.312C59.2422 25.312 58.7995 25.504 58.4475 25.888C58.0955 26.2613 57.9195 26.8107 57.9195 27.536C57.9195 28.2507 58.0902 28.8 58.4315 29.184C58.7835 29.568 59.2208 29.76 59.7435 29.76ZM68.603 20.16V32H65.867V20.16H68.603ZM79.0017 27.392C79.0017 27.648 78.9858 27.9147 78.9538 28.192H72.7618C72.8044 28.7467 72.9804 29.1733 73.2898 29.472C73.6098 29.76 73.9991 29.904 74.4578 29.904C75.1404 29.904 75.6151 29.616 75.8818 29.04H78.7938C78.6444 29.6267 78.3724 30.1547 77.9778 30.624C77.5938 31.0933 77.1084 31.4613 76.5218 31.728C75.9351 31.9947 75.2791 32.128 74.5538 32.128C73.6791 32.128 72.9004 31.9413 72.2178 31.568C71.5351 31.1947 71.0018 30.6613 70.6178 29.968C70.2338 29.2747 70.0418 28.464 70.0418 27.536C70.0418 26.608 70.2284 25.7973 70.6018 25.104C70.9858 24.4107 71.5191 23.8773 72.2018 23.504C72.8844 23.1307 73.6684 22.944 74.5538 22.944C75.4178 22.944 76.1858 23.1253 76.8578 23.488C77.5298 23.8507 78.0524 24.368 78.4258 25.04C78.8098 25.712 79.0017 26.496 79.0017 27.392ZM76.2018 26.672C76.2018 26.2027 76.0418 25.8293 75.7218 25.552C75.4018 25.2747 75.0018 25.136 74.5218 25.136C74.0631 25.136 73.6738 25.2693 73.3538 25.536C73.0444 25.8027 72.8524 26.1813 72.7778 26.672H76.2018ZM79.9011 27.536C79.9011 26.608 80.0878 25.7973 80.4611 25.104C80.8451 24.4107 81.3731 23.8773 82.0451 23.504C82.7278 23.1307 83.5065 22.944 84.3811 22.944C85.5011 22.944 86.4345 23.2373 87.1811 23.824C87.9385 24.4107 88.4345 25.2373 88.6691 26.304H85.7571C85.5118 25.6213 85.0371 25.28 84.3331 25.28C83.8318 25.28 83.4318 25.4773 83.1331 25.872C82.8345 26.256 82.6851 26.8107 82.6851 27.536C82.6851 28.2613 82.8345 28.8213 83.1331 29.216C83.4318 29.6 83.8318 29.792 84.3331 29.792C85.0371 29.792 85.5118 29.4507 85.7571 28.768H88.6691C88.4345 29.8133 87.9385 30.6347 87.1811 31.232C86.4238 31.8293 85.4905 32.128 84.3811 32.128C83.5065 32.128 82.7278 31.9413 82.0451 31.568C81.3731 31.1947 80.8451 30.6613 80.4611 29.968C80.0878 29.2747 79.9011 28.464 79.9011 27.536ZM95.1086 29.68V32H93.7166C92.7246 32 91.9513 31.76 91.3966 31.28C90.842 30.7893 90.5646 29.9947 90.5646 28.896V25.344H89.4766V23.072H90.5646V20.896H93.3006V23.072H95.0926V25.344H93.3006V28.928C93.3006 29.1947 93.3646 29.3867 93.4926 29.504C93.6206 29.6213 93.834 29.68 94.1326 29.68H95.1086ZM98.0086 22.144C97.5286 22.144 97.134 22.0053 96.8246 21.728C96.526 21.44 96.3766 21.088 96.3766 20.672C96.3766 20.2453 96.526 19.8933 96.8246 19.616C97.134 19.328 97.5286 19.184 98.0086 19.184C98.478 19.184 98.862 19.328 99.1606 19.616C99.47 19.8933 99.6246 20.2453 99.6246 20.672C99.6246 21.088 99.47 21.44 99.1606 21.728C98.862 22.0053 98.478 22.144 98.0086 22.144ZM99.3686 23.072V32H96.6326V23.072H99.3686ZM105.415 32.128C104.541 32.128 103.751 31.9413 103.047 31.568C102.354 31.1947 101.805 30.6613 101.399 29.968C101.005 29.2747 100.807 28.464 100.807 27.536C100.807 26.6187 101.01 25.8133 101.415 25.12C101.821 24.416 102.375 23.8773 103.079 23.504C103.783 23.1307 104.573 22.944 105.447 22.944C106.322 22.944 107.111 23.1307 107.815 23.504C108.519 23.8773 109.074 24.416 109.479 25.12C109.885 25.8133 110.087 26.6187 110.087 27.536C110.087 28.4533 109.879 29.264 109.463 29.968C109.058 30.6613 108.498 31.1947 107.783 31.568C107.079 31.9413 106.29 32.128 105.415 32.128ZM105.415 29.76C105.938 29.76 106.381 29.568 106.743 29.184C107.117 28.8 107.303 28.2507 107.303 27.536C107.303 26.8213 107.122 26.272 106.759 25.888C106.407 25.504 105.97 25.312 105.447 25.312C104.914 25.312 104.471 25.504 104.119 25.888C103.767 26.2613 103.591 26.8107 103.591 27.536C103.591 28.2507 103.762 28.8 104.103 29.184C104.455 29.568 104.893 29.76 105.415 29.76ZM116.979 22.976C118.024 22.976 118.856 23.3173 119.475 24C120.104 24.672 120.419 25.6 120.419 26.784V32H117.699V27.152C117.699 26.5547 117.544 26.0907 117.235 25.76C116.926 25.4293 116.51 25.264 115.987 25.264C115.464 25.264 115.048 25.4293 114.739 25.76C114.43 26.0907 114.275 26.5547 114.275 27.152V32H111.539V23.072H114.275V24.256C114.552 23.8613 114.926 23.552 115.395 23.328C115.864 23.0933 116.392 22.976 116.979 22.976Z" fill="white"/>
<path fill-rule="evenodd" clip-rule="evenodd" d="M36.9999 10.3445C33.0798 6.42455 27.6644 4 21.6827 4C9.71921 4 0.020874 13.6983 0.020874 25.6618C0.020874 37.6253 9.71921 47.3237 21.6827 47.3237C27.6645 47.3237 33.08 44.8991 37 40.979L28.4904 32.4694C26.7482 34.2117 24.3413 35.2893 21.6827 35.2893C16.3656 35.2893 12.0552 30.9789 12.0552 25.6618C12.0552 20.3447 16.3656 16.0344 21.6827 16.0344C24.3412 16.0344 26.7481 17.1119 28.4903 18.8541L36.9999 10.3445Z" fill="white"/>
<path fill-rule="evenodd" clip-rule="evenodd" d="M28.6535 32.5652L21.9207 25.662L28.6535 18.7588C30.3766 20.5255 31.4423 22.9661 31.4423 25.662C31.4423 28.3579 30.3766 30.7985 28.6535 32.5652Z" fill="white"/>
</svg>
